<svg width="25" height="25" viewBox="0 0 25 25" fill="none" xmlns="http://www.w3.org/2000/svg">
<path fill-rule="evenodd" clip-rule="evenodd" d="M8.53998 2.89999C7.52155 2.89999 6.54483 3.30456 5.82469 4.0247C5.10455 4.74484 4.69998 5.72156 4.69998 6.73999V17.3C4.69998 17.5546 4.80112 17.7988 4.98116 17.9788C5.16119 18.1589 5.40537 18.26 5.65998 18.26H6.61998L4.69998 22.1H6.61998L7.19598 20.948H17.564L18.14 22.1H20.06L18.14 18.26H19.1C19.3546 18.26 19.5988 18.1589 19.7788 17.9788C19.9588 17.7988 20.06 17.5546 20.06 17.3V6.73999C20.06 5.72156 19.6554 4.74484 18.9353 4.0247C18.2151 3.30456 17.2384 2.89999 16.22 2.89999H8.53998ZM16.22 18.26H8.53998L8.05998 19.22H16.7L16.22 18.26ZM8.53998 4.81999C8.03077 4.81999 7.54241 5.02228 7.18234 5.38235C6.82227 5.74242 6.61998 6.23078 6.61998 6.73999V11.54H11.42V4.81999H8.53998ZM18.14 11.54H13.34V4.81999H16.22C16.7292 4.81999 17.2176 5.02228 17.5776 5.38235C17.9377 5.74242 18.14 6.23078 18.14 6.73999V11.54ZM9.49998 14.9C9.49998 15.2819 9.34827 15.6482 9.07822 15.9182C8.80816 16.1883 8.44189 16.34 8.05998 16.34C7.67807 16.34 7.3118 16.1883 7.04175 15.9182C6.7717 15.6482 6.61998 15.2819 6.61998 14.9C6.61998 14.5181 6.7717 14.1518 7.04175 13.8818C7.3118 13.6117 7.67807 13.46 8.05998 13.46C8.44189 13.46 8.80816 13.6117 9.07822 13.8818C9.34827 14.1518 9.49998 14.5181 9.49998 14.9ZM16.7 16.34C17.0819 16.34 17.4482 16.1883 17.7182 15.9182C17.9883 15.6482 18.14 15.2819 18.14 14.9C18.14 14.5181 17.9883 14.1518 17.7182 13.8818C17.4482 13.6117 17.0819 13.46 16.7 13.46C16.3181 13.46 15.9518 13.6117 15.6817 13.8818C15.4117 14.1518 15.26 14.5181 15.26 14.9C15.26 15.2819 15.4117 15.6482 15.6817 15.9182C15.9518 16.1883 16.3181 16.34 16.7 16.34Z" fill="#474747"/>
</svg>
