<svg width="25" height="24" viewBox="0 0 25 24" fill="none" xmlns="http://www.w3.org/2000/svg">
<g clip-path="url(#clip0_3_259)">
<g clip-path="url(#clip1_3_259)">
<g clip-path="url(#clip2_3_259)">
<path d="M24.88 12L22.2182 8.95638L22.5891 4.93093L18.6509 4.03638L16.5891 0.545471L12.88 2.1382L9.17091 0.545471L7.1091 4.02547L3.17091 4.90911L3.54182 8.94547L0.880005 12L3.54182 15.0437L3.17091 19.08L7.1091 19.9746L9.17091 23.4546L12.88 21.8509L16.5891 23.4437L18.6509 19.9636L22.5891 19.0691L22.2182 15.0437L24.88 12ZM10.0218 16.3746L7.42546 13.7564C7.00001 13.3309 7.00001 12.6437 7.42546 12.2182L7.50182 12.1418C7.92728 11.7164 8.62546 11.7164 9.05091 12.1418L10.8073 13.9091L16.4255 8.28002C16.8509 7.85456 17.5491 7.85456 17.9746 8.28002L18.0509 8.35638C18.4764 8.78183 18.4764 9.46911 18.0509 9.89456L11.5927 16.3746C11.1455 16.8 10.4582 16.8 10.0218 16.3746Z" fill="#FFD333"/>
</g>
</g>
</g>
<defs>
<clipPath id="clip0_3_259">
<rect width="24" height="24" fill="white" transform="translate(0.880005)"/>
</clipPath>
<clipPath id="clip1_3_259">
<rect width="24" height="24" fill="white" transform="translate(0.880005)"/>
</clipPath>
<clipPath id="clip2_3_259">
<rect width="24" height="24" fill="white" transform="translate(0.880005)"/>
</clipPath>
</defs>
</svg>
